<svg width="56" height="46" viewBox="0 0 56 46" fill="none" xmlns="http://www.w3.org/2000/svg">
<path d="M51.6923 0H4.30769C3.16522 0 2.06954 0.440583 1.26169 1.22483C0.453845 2.00907 0 3.07273 0 4.18182V41.8182C0 42.9273 0.453845 43.9909 1.26169 44.7752C2.06954 45.5594 3.16522 46 4.30769 46H51.6923C52.8348 46 53.9305 45.5594 54.7383 44.7752C55.5462 43.9909 56 42.9273 56 41.8182V4.18182C56 3.07273 55.5462 2.00907 54.7383 1.22483C53.9305 0.440583 52.8348 0 51.6923 0ZM51.6923 20.9091H38.7692V4.18182H51.6923V20.9091ZM4.30769 4.18182H34.4615V41.8182H4.30769V4.18182ZM51.6923 41.8182H38.7692V25.0909H51.6923V41.8182ZM42 12.5455C42 11.9251 42.1895 11.3188 42.5445 10.803C42.8995 10.2872 43.4041 9.88522 43.9944 9.64783C44.5848 9.41045 45.2344 9.34834 45.8611 9.46935C46.4878 9.59037 47.0634 9.88908 47.5153 10.3277C47.9671 10.7663 48.2748 11.3252 48.3995 11.9336C48.5241 12.542 48.4601 13.1726 48.2156 13.7457C47.9711 14.3188 47.557 14.8086 47.0257 15.1532C46.4944 15.4979 45.8698 15.6818 45.2308 15.6818C44.3739 15.6818 43.5522 15.3514 42.9463 14.7632C42.3404 14.175 42 13.3773 42 12.5455ZM48.4615 33.4545C48.4615 34.0749 48.2721 34.6812 47.9171 35.197C47.5621 35.7128 47.0575 36.1148 46.4671 36.3522C45.8768 36.5896 45.2272 36.6517 44.6005 36.5306C43.9738 36.4096 43.3981 36.1109 42.9463 35.6723C42.4944 35.2337 42.1867 34.6748 42.0621 34.0664C41.9374 33.458 42.0014 32.8274 42.2459 32.2543C42.4905 31.6812 42.9046 31.1914 43.4359 30.8468C43.9672 30.5021 44.5918 30.3182 45.2308 30.3182C46.0876 30.3182 46.9094 30.6486 47.5153 31.2368C48.1212 31.825 48.4615 32.6227 48.4615 33.4545ZM30.0865 32.9318C29.3896 30.4055 27.7369 28.2272 25.4585 26.8316C26.6685 25.6639 27.4941 24.1737 27.8307 22.55C28.1673 20.9263 27.9997 19.2421 27.3491 17.7109C26.6985 16.1798 25.5943 14.8706 24.1764 13.9494C22.7585 13.0282 21.0908 12.5364 19.3846 12.5364C17.6785 12.5364 16.0107 13.0282 14.5928 13.9494C13.1749 14.8706 12.0707 16.1798 11.4201 17.7109C10.7696 19.2421 10.602 20.9263 10.9385 22.55C11.2751 24.1737 12.1008 25.6639 13.3108 26.8316C11.0338 28.2287 9.38162 30.4064 8.68269 32.9318C8.53988 33.469 8.62276 34.0393 8.91308 34.5172C9.2034 34.9951 9.67739 35.3415 10.2308 35.4801C10.7842 35.6187 11.3716 35.5383 11.8639 35.2565C12.3562 34.9746 12.713 34.5145 12.8558 33.9773C13.5665 31.2983 16.3719 29.2727 19.3846 29.2727C22.3973 29.2727 25.2054 31.2931 25.9135 33.9773C26.0563 34.5145 26.4131 34.9746 26.9053 35.2565C27.3976 35.5383 27.9851 35.6187 28.5385 35.4801C29.0918 35.3415 29.5658 34.9951 29.8562 34.5172C30.1465 34.0393 30.2293 33.469 30.0865 32.9318ZM15.0769 20.9091C15.0769 20.082 15.3296 19.2735 15.8029 18.5858C16.2762 17.8981 16.949 17.3621 17.7361 17.0456C18.5233 16.7291 19.3894 16.6463 20.225 16.8076C21.0606 16.969 21.8282 17.3673 22.4306 17.9521C23.0331 18.5369 23.4433 19.2821 23.6095 20.0933C23.7758 20.9045 23.6904 21.7453 23.3644 22.5094C23.0384 23.2735 22.4862 23.9266 21.7778 24.3861C21.0694 24.8456 20.2366 25.0909 19.3846 25.0909C18.2421 25.0909 17.1465 24.6503 16.3386 23.8661C15.5308 23.0818 15.0769 22.0182 15.0769 20.9091Z" fill="#fff"/>
</svg>
