<svg width="52" height="46" viewBox="0 0 52 46" fill="none" xmlns="http://www.w3.org/2000/svg">
<path d="M47.6667 0H4.33333C3.18406 0 2.08186 0.403868 1.2692 1.12276C0.456546 1.84165 0 2.81667 0 3.83333V42.1667C0 43.1833 0.456546 44.1584 1.2692 44.8772C2.08186 45.5961 3.18406 46 4.33333 46H47.6667C48.8159 46 49.9181 45.5961 50.7308 44.8772C51.5435 44.1584 52 43.1833 52 42.1667V3.83333C52 2.81667 51.5435 1.84165 50.7308 1.12276C49.9181 0.403868 48.8159 0 47.6667 0ZM47.6667 42.1667H4.33333V3.83333H47.6667V42.1667ZM39 23C39 23.5083 38.7717 23.9958 38.3654 24.3553C37.9591 24.7147 37.408 24.9167 36.8333 24.9167H28.1667V32.5833C28.1667 33.0917 27.9384 33.5792 27.5321 33.9386C27.1257 34.2981 26.5746 34.5 26 34.5C25.4254 34.5 24.8743 34.2981 24.4679 33.9386C24.0616 33.5792 23.8333 33.0917 23.8333 32.5833V24.9167H15.1667C14.592 24.9167 14.0409 24.7147 13.6346 24.3553C13.2283 23.9958 13 23.5083 13 23C13 22.4917 13.2283 22.0042 13.6346 21.6447C14.0409 21.2853 14.592 21.0833 15.1667 21.0833H23.8333V13.4167C23.8333 12.9083 24.0616 12.4208 24.4679 12.0614C24.8743 11.7019 25.4254 11.5 26 11.5C26.5746 11.5 27.1257 11.7019 27.5321 12.0614C27.9384 12.4208 28.1667 12.9083 28.1667 13.4167V21.0833H36.8333C37.408 21.0833 37.9591 21.2853 38.3654 21.6447C38.7717 22.0042 39 22.4917 39 23Z" fill="#5A5DAF"/>
</svg>
