<svg width="23" height="23" viewBox="0 0 23 23" fill="none" xmlns="http://www.w3.org/2000/svg">
<path d="M21.9006 3.83237L18.355 0.2618C18.2727 0.178805 18.175 0.112965 18.0673 0.0680431C17.9597 0.0231216 17.8444 0 17.7279 0C17.6114 0 17.4961 0.0231216 17.3885 0.0680431C17.2809 0.112965 17.1831 0.178805 17.1008 0.2618L6.46404 10.9735C6.38175 11.0565 6.3165 11.1549 6.27201 11.2633C6.22753 11.3717 6.20468 11.4878 6.20477 11.605V15.1756C6.20477 15.4124 6.29816 15.6394 6.46439 15.8068C6.63062 15.9742 6.85608 16.0682 7.09116 16.0682H10.6367C10.7532 16.0683 10.8685 16.0453 10.9761 16.0005C11.0837 15.9557 11.1815 15.89 11.2639 15.8072L21.9006 5.09545C21.983 5.01255 22.0484 4.9141 22.093 4.80574C22.1376 4.69737 22.1606 4.58122 22.1606 4.46391C22.1606 4.3466 22.1376 4.23045 22.093 4.12208C22.0484 4.01372 21.983 3.91527 21.9006 3.83237ZM10.27 14.283H7.97756V11.9744L15.0687 4.83324L17.3612 7.14183L10.27 14.283ZM18.6143 5.87986L16.3219 3.57127L17.7279 2.15532L20.0203 4.46391L18.6143 5.87986ZM21.2735 11.605V20.5315C21.2735 21.0049 21.0867 21.459 20.7543 21.7938C20.4218 22.1286 19.9709 22.3167 19.5007 22.3167H1.77279C1.30262 22.3167 0.851701 22.1286 0.519238 21.7938C0.186776 21.459 0 21.0049 0 20.5315V2.67863C0 2.20514 0.186776 1.75105 0.519238 1.41624C0.851701 1.08144 1.30262 0.893344 1.77279 0.893344H10.6367C10.8718 0.893344 11.0973 0.98739 11.2635 1.15479C11.4298 1.3222 11.5231 1.54924 11.5231 1.78599C11.5231 2.02273 11.4298 2.24978 11.2635 2.41718C11.0973 2.58458 10.8718 2.67863 10.6367 2.67863H1.77279V20.5315H19.5007V11.605C19.5007 11.3683 19.5941 11.1413 19.7603 10.9738C19.9265 10.8064 20.152 10.7124 20.3871 10.7124C20.6222 10.7124 20.8476 10.8064 21.0139 10.9738C21.1801 11.1413 21.2735 11.3683 21.2735 11.605Z" fill="#5A5DAF"/>
</svg>
