<svg width="58" height="52" viewBox="0 0 58 52" fill="none" xmlns="http://www.w3.org/2000/svg">
<path d="M52.7376 4H45.5461V2C45.5461 1.46957 45.2935 0.960859 44.844 0.585786C44.3944 0.210714 43.7847 0 43.1489 0C42.5132 0 41.9034 0.210714 41.4539 0.585786C41.0043 0.960859 40.7518 1.46957 40.7518 2V4H16.7801V2C16.7801 1.46957 16.5276 0.960859 16.078 0.585786C15.6285 0.210714 15.0187 0 14.383 0C13.7472 0 13.1375 0.210714 12.6879 0.585786C12.2384 0.960859 11.9858 1.46957 11.9858 2V4H4.79433C3.52279 4 2.30334 4.42143 1.40423 5.17157C0.505115 5.92172 0 6.93913 0 8V48C0 49.0609 0.505115 50.0783 1.40423 50.8284C2.30334 51.5786 3.52279 52 4.79433 52H52.7376C54.0091 52 55.2286 51.5786 56.1277 50.8284C57.0268 50.0783 57.5319 49.0609 57.5319 48V8C57.5319 6.93913 57.0268 5.92172 56.1277 5.17157C55.2286 4.42143 54.0091 4 52.7376 4ZM11.9858 8V10C11.9858 10.5304 12.2384 11.0391 12.6879 11.4142C13.1375 11.7893 13.7472 12 14.383 12C15.0187 12 15.6285 11.7893 16.078 11.4142C16.5276 11.0391 16.7801 10.5304 16.7801 10V8H40.7518V10C40.7518 10.5304 41.0043 11.0391 41.4539 11.4142C41.9034 11.7893 42.5132 12 43.1489 12C43.7847 12 44.3944 11.7893 44.844 11.4142C45.2935 11.0391 45.5461 10.5304 45.5461 10V8H52.7376V16H4.79433V8H11.9858ZM52.7376 48H4.79433V20H52.7376V48ZM32.3617 29C32.3617 29.5933 32.1508 30.1734 31.7557 30.6667C31.3606 31.1601 30.799 31.5446 30.142 31.7716C29.485 31.9987 28.762 32.0581 28.0645 31.9424C27.367 31.8266 26.7263 31.5409 26.2234 31.1213C25.7205 30.7018 25.378 30.1672 25.2393 29.5853C25.1006 29.0033 25.1718 28.4001 25.4439 27.8519C25.7161 27.3038 26.177 26.8352 26.7683 26.5056C27.3596 26.1759 28.0548 26 28.766 26C29.7196 26 30.6342 26.3161 31.3085 26.8787C31.9829 27.4413 32.3617 28.2044 32.3617 29ZM45.5461 29C45.5461 29.5933 45.3352 30.1734 44.9401 30.6667C44.545 31.1601 43.9834 31.5446 43.3264 31.7716C42.6693 31.9987 41.9464 32.0581 41.2489 31.9424C40.5514 31.8266 39.9107 31.5409 39.4078 31.1213C38.9049 30.7018 38.5624 30.1672 38.4237 29.5853C38.285 29.0033 38.3562 28.4001 38.6283 27.8519C38.9005 27.3038 39.3614 26.8352 39.9527 26.5056C40.544 26.1759 41.2392 26 41.9504 26C42.904 26 43.8186 26.3161 44.4929 26.8787C45.1673 27.4413 45.5461 28.2044 45.5461 29ZM19.1773 39C19.1773 39.5933 18.9664 40.1734 18.5713 40.6667C18.1762 41.1601 17.6146 41.5446 16.9576 41.7716C16.3006 41.9987 15.5776 42.0581 14.8801 41.9424C14.1826 41.8266 13.5419 41.5409 13.039 41.1213C12.5361 40.7018 12.1936 40.1672 12.0549 39.5853C11.9162 39.0033 11.9874 38.4001 12.2595 37.852C12.5317 37.3038 12.9926 36.8352 13.5839 36.5056C14.1752 36.1759 14.8704 36 15.5816 36C16.5352 36 17.4498 36.3161 18.1241 36.8787C18.7985 37.4413 19.1773 38.2043 19.1773 39ZM32.3617 39C32.3617 39.5933 32.1508 40.1734 31.7557 40.6667C31.3606 41.1601 30.799 41.5446 30.142 41.7716C29.485 41.9987 28.762 42.0581 28.0645 41.9424C27.367 41.8266 26.7263 41.5409 26.2234 41.1213C25.7205 40.7018 25.378 40.1672 25.2393 39.5853C25.1006 39.0033 25.1718 38.4001 25.4439 37.852C25.7161 37.3038 26.177 36.8352 26.7683 36.5056C27.3596 36.1759 28.0548 36 28.766 36C29.7196 36 30.6342 36.3161 31.3085 36.8787C31.9829 37.4413 32.3617 38.2043 32.3617 39ZM45.5461 39C45.5461 39.5933 45.3352 40.1734 44.9401 40.6667C44.545 41.1601 43.9834 41.5446 43.3264 41.7716C42.6693 41.9987 41.9464 42.0581 41.2489 41.9424C40.5514 41.8266 39.9107 41.5409 39.4078 41.1213C38.9049 40.7018 38.5624 40.1672 38.4237 39.5853C38.285 39.0033 38.3562 38.4001 38.6283 37.852C38.9005 37.3038 39.3614 36.8352 39.9527 36.5056C40.544 36.1759 41.2392 36 41.9504 36C42.904 36 43.8186 36.3161 44.4929 36.8787C45.1673 37.4413 45.5461 38.2043 45.5461 39Z" fill="#fff"/>
</svg>
