<svg width="24" height="24" viewBox="0 0 24 24" fill="none" xmlns="http://www.w3.org/2000/svg">
<path d="M8.34375 3C5.40425 3 3 5.40425 3 8.34375V15.6562C3 18.5958 5.40425 21 8.34375 21H15.6562C18.5958 21 21 18.5958 21 15.6562V8.34375C21 5.40425 18.5958 3 15.6562 3H8.34375ZM8.34375 5H15.6562C17.5147 5 19 6.48525 19 8.34375V15.6562C19 17.5147 17.5147 19 15.6562 19H8.34375C6.48525 19 5 17.5147 5 15.6562V8.34375C5 6.48525 6.48525 5 8.34375 5ZM7.69922 9C7.31322 9 7 9.31322 7 9.69922V12.8125C7 14.0205 7.9795 15 9.1875 15H13.3008C13.6868 15 14 14.6868 14 14.3008V11.1875C14 9.9795 13.0205 9 11.8125 9H7.69922ZM17 9L15 11V13L17 15V9Z" fill="#5A5DAF"/>
</svg>
